<svg viewBox="0 0 785 231" fill="none" xmlns="http://www.w3.org/2000/svg"><path d="M0 206.735v21.955c0 1.01.82 1.829 1.83 1.829h781.34a1.83 1.83 0 0 0 1.83-1.829v-32.017a1.83 1.83 0 0 0-1.83-1.829h-49.772a1.83 1.83 0 0 1-1.83-1.83V75.229c0-.145-.017-.29-.052-.431l-2.443-10.07c-.433-1.786-2.932-1.89-3.513-.148l-1.911 5.729c-.538 1.612-2.793 1.684-3.431.108L710.62 46.75c-.592-1.46-2.629-1.539-3.333-.13L695.17 70.896c-.739 1.48-2.907 1.298-3.387-.286l-1.909-6.293c-.525-1.731-2.976-1.731-3.501 0l-3.165 10.434a1.836 1.836 0 0 0-.078.53v26.257a1.83 1.83 0 0 1-1.83 1.83h-95.714a1.83 1.83 0 0 1-1.83-1.83V75.281c0-.18-.026-.358-.078-.53l-3.165-10.434c-.525-1.731-2.976-1.731-3.501 0l-1.831 6.037c-.49 1.616-2.721 1.761-3.417.222l-10.81-23.897c-.648-1.434-2.685-1.434-3.333 0l-10.89 24.076c-.686 1.517-2.876 1.404-3.403-.175l-2.002-6c-.581-1.743-3.08-1.638-3.513.147l-2.443 10.07a1.792 1.792 0 0 0-.052.432v117.785a1.83 1.83 0 0 1-1.829 1.83H426.788a1.83 1.83 0 0 1-1.829-1.83V51.226a1.83 1.83 0 0 0-1.83-1.83h-12.32a1.83 1.83 0 0 1-1.83-1.829V35.676a1.83 1.83 0 0 0-1.829-1.83h-27.801a1.83 1.83 0 0 0-1.83 1.83v11.891a1.83 1.83 0 0 1-1.829 1.83h-11.322a1.83 1.83 0 0 0-1.83 1.83v103.825a1.83 1.83 0 0 1-1.829 1.829h-.836a1.83 1.83 0 0 1-1.829-1.829V4.116a1.83 1.83 0 0 0-1.83-1.83h-57.263c-1.01 0-1.83.82-1.83 1.83v156.148a1.83 1.83 0 0 1-1.687 1.824l-62.113 4.819a1.83 1.83 0 0 1-1.935-1.464L216.76 92.569a1.814 1.814 0 0 1-.036-.36V38.46c0-1.591-1.892-2.424-3.065-1.35l-2.833 2.596a1.83 1.83 0 0 0-.594 1.349v51.179c0 .104.009.208.027.31l12.615 73.167a1.83 1.83 0 0 1-1.661 2.135l-36.385 2.823a1.83 1.83 0 0 1-1.912-2.286l19.766-75.765a1.8 1.8 0 0 0 .06-.462V34.618c0-.493-.2-.966-.554-1.31l-4.331-4.215c-1.159-1.129-3.105-.307-3.105 1.31v61.744c0 .162-.022.323-.064.479l-21.071 77.693a1.828 1.828 0 0 1-1.625 1.345l-49.676 3.818a1.829 1.829 0 0 1-1.969-1.824V91.476a1.83 1.83 0 0 0-1.83-1.83h-28.3a1.83 1.83 0 0 1-1.83-1.83V76.73a1.83 1.83 0 0 0-.593-1.349l-10.797-9.89a1.83 1.83 0 0 1-.594-1.348v-35.41c0-.965-.783-1.748-1.748-1.748a1.748 1.748 0 0 1-1.748-1.747V1.498a1.498 1.498 0 1 0-2.996 0v23.99c0 .827-.67 1.497-1.498 1.497s-1.498.671-1.498 1.498v35.66a1.83 1.83 0 0 1-.594 1.349l-10.797 9.89a1.83 1.83 0 0 0-.594 1.348v11.087c0 1.01-.82 1.83-1.83 1.83H23.801c-1.01 0-1.829.818-1.829 1.829v81.413c0 1.011.82 1.83 1.83 1.83h2.333c1.01 0 1.83.819 1.83 1.829v2.745a1.83 1.83 0 0 1-1.83 1.829H23.8a1.83 1.83 0 0 0-1.829 1.83v20.124a1.83 1.83 0 0 1-1.83 1.83H1.83A1.83 1.83 0 0 0 0 206.735Z" fill="currentColor"></path><rect x="733.066" y="172.889" width="51.934" height="4.574" rx="0.915" fill="currentColor"></rect><rect x="427.454" y="172.889" width="105.865" height="4.574" rx="0.915" fill="currentColor"></rect><path d="M150.809 209.48v-23.064l17.977-1.635-5.993 20.164h-7.79v4.535h-4.194ZM173.41 202.597l5.023-18.401a1.828 1.828 0 0 1 1.622-1.342l44.031-3.434a1.829 1.829 0 0 1 1.938 1.474l4.257 21.833a1.83 1.83 0 0 1-1.796 2.179h-13.591l-39.719.002a1.83 1.83 0 0 1-1.765-2.311ZM239.889 203.447l-4.76-22.989a1.829 1.829 0 0 1 1.691-2.197l53.874-2.978a1.83 1.83 0 0 1 1.93 1.827v25.966a1.83 1.83 0 0 1-1.829 1.83h-49.114a1.83 1.83 0 0 1-1.792-1.459ZM584.255 114.345a1.83 1.83 0 0 1 1.829-1.83h95.215a1.83 1.83 0 0 1 1.83 1.83v56.715a1.83 1.83 0 0 1-1.83 1.829h-95.215a1.83 1.83 0 0 1-1.829-1.829v-56.715ZM584.255 179.292a1.83 1.83 0 0 1 1.829-1.829h95.215a1.83 1.83 0 0 1 1.83 1.829v13.722a1.83 1.83 0 0 1-1.83 1.829h-95.215a1.83 1.83 0 0 1-1.829-1.829v-13.722Z"></path><path d="M745.053 122.486a.914.914 0 0 1 1.432-.754l2.166 1.488c.248.17.397.452.397.754v43.427c0 .505-.41.914-.915.914h-2.166a.914.914 0 0 1-.914-.914v-44.915ZM521.335 122.486a.915.915 0 0 0-1.433-.754l-2.165 1.488a.912.912 0 0 0-.397.754v43.427c0 .505.41.914.915.914h2.165a.915.915 0 0 0 .915-.914v-44.915ZM763.026 138.952a.915.915 0 0 1 1.433-.754l2.165 1.488c.249.17.397.452.397.754v26.961a.915.915 0 0 1-.914.915h-2.166a.915.915 0 0 1-.915-.915v-28.449ZM503.356 138.952a.914.914 0 0 0-1.432-.754l-2.166 1.488a.913.913 0 0 0-.396.754v26.961c0 .505.409.915.914.915h2.166c.505 0 .914-.41.914-.915v-28.449ZM780.009 149.014a.914.914 0 0 1 1.432-.754l2.166 1.488c.248.17.397.452.397.754v16.899c0 .505-.41.914-.915.914h-2.165a.914.914 0 0 1-.915-.914v-18.387ZM486.381 149.014a.915.915 0 0 0-1.433-.754l-2.165 1.488a.912.912 0 0 0-.397.754v16.899c0 .505.409.914.915.914h2.165a.915.915 0 0 0 .915-.914v-18.387ZM292.724 98.064 223.145 51.27a.914.914 0 0 0-1.425.76v1.453c0 .305.151.59.404.76l69.58 46.794a.915.915 0 0 0 1.425-.759v-1.455a.915.915 0 0 0-.405-.758ZM292.763 116.815l-69.58-52.143a.915.915 0 0 0-1.463.732v1.373c0 .288.135.56.366.732l69.579 52.142a.915.915 0 0 0 1.464-.732v-1.372a.915.915 0 0 0-.366-.732ZM292.805 136.482l-69.58-58.827a.914.914 0 0 0-1.505.699v1.263c0 .27.118.525.324.698l69.579 58.828a.915.915 0 0 0 1.506-.699v-1.263a.918.918 0 0 0-.324-.699ZM292.843 156.61l-69.579-65.957c-.583-.553-1.544-.14-1.544.664v1.138c0 .25.103.49.285.664l69.58 65.957c.583.553 1.544.14 1.544-.663v-1.139a.913.913 0 0 0-.286-.664ZM119.253 98.064l69.58-46.794a.915.915 0 0 1 1.425.76v1.453c0 .305-.152.59-.404.76l-69.58 46.794a.914.914 0 0 1-1.425-.759v-1.455c0-.304.151-.589.404-.758ZM119.215 116.815l69.579-52.143a.915.915 0 0 1 1.464.732v1.373c0 .288-.136.56-.366.732l-69.58 52.142a.914.914 0 0 1-1.463-.732v-1.372c0-.288.135-.56.366-.732ZM119.173 136.482l69.579-58.827a.915.915 0 0 1 1.506.699v1.263c0 .27-.119.525-.324.698l-69.58 58.828a.915.915 0 0 1-1.505-.699v-1.263c0-.269.118-.525.324-.699ZM119.134 156.61l69.58-65.957c.583-.553 1.544-.14 1.544.664v1.138a.912.912 0 0 1-.286.664l-69.579 65.957c-.583.553-1.544.14-1.544-.663v-1.139c0-.251.103-.491.285-.664Z" fill="currentColor"></path></svg>