<svg width="72" height="72" viewBox="0 0 72 72" fill="none" xmlns="http://www.w3.org/2000/svg">
<path d="M10 21.6167L29.7444 30.4979C29.7444 30.4979 32.4812 29.2729 35.1203 28.0479C35.1203 28.0479 35.609 27.7417 35.609 27.2312C35.609 27.2312 35.609 26.6188 34.9248 26.3125C34.9248 26.3125 26.0301 22.3313 17.1353 18.35L33.0677 11.2042L34.4361 11L35.7068 11.3063L59.5564 22.025C59.5564 22.025 62 23.1479 62 24.5771C62 24.5771 62 26.0062 59.5564 27.0271L40.8872 35.3979L59.5564 43.7687C59.5564 43.7687 62 44.7896 62 46.4229C62 46.4229 62 47.8521 59.5564 48.975L35.7068 59.5917C35.7068 59.5917 35.218 60 34.4361 60L33.0677 59.5917L17.1353 52.5479L34.9248 44.6875L35.609 43.7687C35.609 43.7687 35.609 43.3604 35.1203 42.85L29.7444 40.5021L10 49.3833V39.2771L18.6015 35.3979L10 31.7229V21.6167Z" fill="#2C2926"/>
</svg>
