<svg width="72" height="72" viewBox="0 0 72 72" fill="none" xmlns="http://www.w3.org/2000/svg">
<path fill-rule="evenodd" clip-rule="evenodd" d="M43.5373 40.3913C44.0855 43.3254 42.6006 45.7626 41.3669 48.1283C39.9964 50.3293 37.7346 52.221 35.016 51.9379C28.9154 51.8433 22.953 50.8732 17.4236 49.1453C17.1726 49.0745 16.9215 48.9083 16.7841 48.6722C16.6697 48.3406 16.8302 48.0328 17.0582 47.8205C22.1077 43.5847 28.1162 41.6214 34.0563 39.5619C36.272 38.8995 38.626 38.1895 41.1158 38.521C42.1431 38.6634 43.1711 39.3973 43.5373 40.3913V40.3913ZM64.3504 27.8507C67.1834 30.264 69.7423 33.5536 68.874 37.5287C67.4575 43.397 61.2893 46.5204 56.3772 48.5076C53.7039 49.4307 51.0083 50.3778 48.084 50.6617C47.9012 50.6378 47.6041 50.6847 47.558 50.4009L47.6264 50.0701C51.7845 45.2187 54.9369 39.7774 57.7024 34.2637C58.9815 31.7788 60.17 29.2239 61.2663 26.7152C61.426 26.5259 61.5865 26.4313 61.7692 26.3605C62.7965 26.4544 63.5281 27.2829 64.3504 27.8507V27.8507ZM24.4824 21.6038L24.391 21.9585C18.3826 29.0331 14.4301 37.244 10.6835 45.4072C9.9526 46.1173 9.24396 45.1702 8.58138 44.8625C5.24549 42.5915 2.22974 38.9234 3.09807 34.5699C4.49155 28.8916 10.1346 25.8628 14.8417 23.8049C17.6286 22.7163 20.5307 21.8408 23.5918 21.3438C23.9119 21.343 24.3227 21.2961 24.4824 21.6038ZM54.2982 22.7393C54.6406 22.9286 55.0521 22.9994 55.2579 23.354C55.4406 23.7564 55.0751 24.0164 54.8694 24.2772C50.14 28.1099 44.7258 30.2402 39.1964 32.1096C36.3857 32.8197 33.5526 34.0975 30.4233 33.3874C29.6916 33.1982 29.0298 32.7012 28.6183 31.9673C27.8413 29.7432 28.8924 27.4245 29.806 25.4843C31.0167 23.0471 33.1649 20.1837 36.1346 20.1368C42.5315 20.0891 48.563 21.083 54.2982 22.7393V22.7393ZM62.203 22.9286C67.0467 25.6735 72.5301 30.5002 71.9588 36.9363C71.2963 42.8992 65.9274 47.0635 61.1297 49.5723C47.1243 56.5054 27.4536 56.7177 12.9914 50.6609C8.10154 48.5553 2.61823 44.9349 0.561408 39.4919C-1.01479 35.0199 0.903827 30.3586 4.1261 27.2591C10.8655 20.9176 19.4559 18.7412 28.2981 17.4865C37.8943 16.2794 47.9918 17.3441 56.5822 20.3968C58.5016 21.1307 60.398 21.9354 62.203 22.9286Z" fill="#2C2926"/>
</svg>
