<svg width="72" height="72" viewBox="0 0 72 72" fill="none" xmlns="http://www.w3.org/2000/svg">
<path fill-rule="evenodd" clip-rule="evenodd" d="M36 56C55.8823 56 72 47.0457 72 36C72 24.9543 55.8823 16 36 16C16.1177 16 0 24.9543 0 36C0 47.0457 16.1177 56 36 56ZM70 36C70 45.9411 54.7777 54 36 54C17.2223 54 2 45.9411 2 36C2 26.0589 17.2223 18 36 18C54.7777 18 70 26.0589 70 36Z" fill="#2C2926"/>
<path fill-rule="evenodd" clip-rule="evenodd" d="M36 51C54.2254 51 69 44.2843 69 36C69 27.7157 54.2254 21 36 21C17.7746 21 3 27.7157 3 36C3 44.2843 17.7746 51 36 51ZM45.1028 34.9776L44.8505 35.0294C44.8426 35.1224 44.8326 35.2155 44.8226 35.3083L44.8226 35.3087L44.8225 35.309L44.8225 35.3094C44.8012 35.5078 44.78 35.7056 44.7789 35.9011C44.7783 36.395 44.7772 36.8888 44.7761 37.3827C44.7717 39.4207 44.7672 41.4586 44.796 43.4965C44.8054 44.2222 44.5516 44.4609 43.8462 44.4373C42.5522 44.3949 41.2552 44.4028 39.9597 44.4358C39.3135 44.453 39.0145 44.2677 39.0301 43.5562C39.0331 43.4162 39.0351 43.2881 39.0369 43.171L39.0369 43.1696C39.0469 42.5125 39.0516 42.1995 39.2101 42.0549C39.3542 41.9234 39.6254 41.9312 40.1433 41.946C40.2618 41.9494 40.3932 41.9532 40.5389 41.9558C41.1353 41.9668 41.3766 41.7453 41.3735 41.1344C41.358 37.5063 41.3517 33.8766 41.3704 30.2485C41.3751 29.5104 40.9967 29.3926 40.391 29.3988C39.0317 29.4114 39.0301 29.3941 39.0379 27.99C39.0441 26.9174 39.0441 26.9126 40.1341 26.9094C40.6876 26.9078 41.2412 26.9097 41.795 26.9115H41.7951H41.7952H41.7953H41.7954C42.874 26.9151 43.9529 26.9187 45.0311 26.8969C45.6166 26.8859 45.9093 27.1058 46.1196 27.6523C46.8255 29.4952 47.5589 31.328 48.2921 33.1602L48.2922 33.1604L48.2923 33.1607L48.2925 33.1611L48.2961 33.1703C48.4333 33.513 48.5705 33.8558 48.7074 34.1986C48.7838 34.3879 48.8739 34.5707 48.9639 34.7534C49.0061 34.839 49.0482 34.9245 49.0889 35.0106C49.1255 35.0145 49.1625 35.018 49.1995 35.0216L49.2486 35.0263C49.2691 35.0283 49.2896 35.0304 49.31 35.0326C49.4065 34.8111 49.5051 34.5907 49.6037 34.3704L49.6037 34.3703L49.6037 34.3703L49.6038 34.3702L49.6038 34.3702C49.8045 33.9217 50.005 33.4735 50.1867 33.0175C50.9092 31.2019 51.6285 29.3831 52.3168 27.5534C52.4912 27.0885 52.7481 26.9 53.2339 26.9047C55.0479 26.922 56.8619 26.9189 58.6759 26.9063C59.1633 26.9032 59.4125 27.0806 59.3782 27.5911C59.3732 27.6744 59.3753 27.759 59.3774 27.8437C59.3786 27.8899 59.3798 27.9361 59.3798 27.9822C59.3844 29.3737 59.3844 29.3988 58.0002 29.3957C57.3088 29.3941 57.0348 29.6313 57.0394 30.3553C57.0628 33.9049 57.0597 37.456 57.0317 41.0056C57.0254 41.7202 57.2637 41.9793 57.9753 41.9621L58.1094 41.9586L58.2548 41.9544C58.8004 41.9383 59.0751 41.9303 59.2167 42.0636C59.3603 42.1987 59.367 42.4791 59.3807 43.0439L59.3807 43.0443V43.0446C59.3834 43.156 59.3863 43.2786 59.3907 43.4133C59.4171 44.2002 59.1711 44.4782 58.377 44.4436C57.0566 44.3855 55.733 44.4075 54.4126 44.4358C53.7945 44.4483 53.5827 44.3038 53.5998 43.5986C53.6515 41.526 53.6466 39.4516 53.6417 37.3774V37.3773V37.3772V37.3772V37.3771C53.6402 36.7652 53.6388 36.1533 53.6388 35.5415C53.6388 35.4276 53.6116 35.3131 53.5844 35.1984C53.5715 35.1437 53.5585 35.0889 53.5484 35.0341C53.4675 35.0106 53.3867 34.9855 53.3058 34.9604L53.3057 34.9604L53.3055 34.9603C52.5545 36.8006 51.8035 38.6404 51.0383 40.5148L50.9688 40.685L50.9407 40.7539L49.2074 45H49.1885C48.2166 42.6172 47.2792 40.3174 46.3526 38.0439L46.3485 38.0338L46.3391 38.0107L46.3219 37.9685L45.1028 34.9776ZM29.4833 38.302L29.4834 38.302L29.4834 38.3021C29.5315 38.3775 29.5881 38.4661 29.6533 38.5774C29.7076 38.4449 29.756 38.3317 29.7992 38.2307L29.7996 38.2298L29.7997 38.2296L29.7997 38.2295C29.8776 38.0474 29.9385 37.905 29.9865 37.7607C30.8289 35.2132 31.6682 32.6657 32.495 30.1135C32.551 29.9407 32.5666 29.6329 32.467 29.5512C31.9235 29.1016 31.9892 28.5497 32.0544 28.0026C32.0806 27.7833 32.1066 27.5648 32.0933 27.3539C32.0839 27.222 32.4249 26.9456 32.6102 26.9409C33.9291 26.9032 35.2495 26.9126 36.5699 26.9267C36.7349 26.9283 36.9452 26.9974 37.0542 27.112C37.3578 27.4356 37.1304 29.1413 36.8175 29.4491C36.5901 29.6721 36.3612 29.9485 36.2694 30.2438C34.8789 34.6949 33.4993 39.1507 32.1493 43.6143C31.9671 44.2143 31.6978 44.4719 31.064 44.4436C30.0815 44.3996 29.0958 44.4012 28.1133 44.4436C27.5076 44.4703 27.2522 44.2174 27.081 43.6536C25.7201 39.1931 24.3389 34.7389 22.936 30.2909C22.8686 30.0769 22.7077 29.8937 22.546 29.7095C22.4573 29.6085 22.3684 29.5072 22.2945 29.4004C22.2735 29.3706 22.2514 29.3404 22.2291 29.3098L22.229 29.3096C22.1184 29.1582 22.0012 28.9977 21.983 28.8319C21.9515 28.536 21.9569 28.2358 21.9623 27.9357V27.9356V27.9356V27.9356V27.9355C21.9648 27.7912 21.9674 27.6469 21.9659 27.5031C21.9628 27.0649 22.1948 26.9094 22.6028 26.911C23.9232 26.9173 25.2436 26.9173 26.564 26.911C26.972 26.9094 27.2398 27.0759 27.1869 27.5063C27.1616 27.7143 27.1803 27.9322 27.199 28.1508C27.2437 28.6747 27.2888 29.2018 26.7306 29.603C26.6497 29.6611 26.6777 29.9501 26.7291 30.1088C27.5808 32.7364 28.4419 35.3593 29.3092 37.9822C29.3427 38.0815 29.4005 38.1721 29.4833 38.302ZM18.1744 35.6702H18.1837C18.1837 35.1555 18.1848 34.6408 18.1858 34.1261V34.1259V34.1258V34.1257C18.1883 32.8392 18.1909 31.5529 18.1775 30.2674C18.1713 29.68 18.3768 29.4067 18.9872 29.4067C20.2142 29.4067 20.2142 29.3894 20.2142 28.1157C20.2142 28.0742 20.2131 28.0326 20.212 27.9909C20.2096 27.9017 20.2072 27.8124 20.2157 27.7246C20.2749 27.1105 19.9962 26.8984 19.3983 26.9063C18.1471 26.9242 16.8951 26.9206 15.6428 26.917H15.6428H15.6428H15.6427C15.1325 26.9156 14.6222 26.9142 14.1119 26.9142C12.6265 26.9142 12.6265 26.916 12.6343 28.3876C12.6405 29.4193 12.6406 29.4334 13.7055 29.4067C14.3206 29.391 14.6725 29.5371 14.6694 30.2705C14.6476 33.8986 14.6569 37.5267 14.6725 41.1548C14.6756 41.7139 14.4841 41.9825 13.9064 41.9542C12.6282 41.8915 12.6307 42.0386 12.6441 42.833C12.6464 42.9734 12.6491 43.1341 12.6452 43.3175C12.6439 43.3696 12.6452 43.422 12.6464 43.4743V43.4744V43.4744V43.4744C12.6483 43.5529 12.6501 43.6313 12.6436 43.7086C12.5969 44.263 12.8756 44.4373 13.3894 44.4326C14.3708 44.4265 15.3522 44.4267 16.3336 44.4269H16.3345C17.3739 44.4271 18.4134 44.4273 19.4528 44.42C19.6692 44.4185 20.0631 44.3211 20.0709 44.2363C20.1394 43.5719 20.1955 42.8903 20.1036 42.2353C20.0834 42.0956 19.445 41.9526 19.0977 41.9683C18.3644 42.0029 18.1542 41.6903 18.1682 40.9946C18.1877 39.761 18.183 38.526 18.1784 37.291V37.2909V37.2909V37.2908C18.1764 36.7506 18.1744 36.2103 18.1744 35.6702Z" fill="#2C2926"/>
</svg>
