<svg width="72" height="72" viewBox="0 0 72 72" fill="none" xmlns="http://www.w3.org/2000/svg">
<g clip-path="url(#clip0_8208_52896)">
<path d="M44.735 21.8297H48.9953C50.4663 26.2599 51.9246 30.7152 53.7125 34.4558H48.6784C49.097 33.2939 48.653 32.3876 48.3867 31.3663H44.6841C44.5828 32.3876 43.8726 32.9365 44.3798 34.4558H40.8042C41.2607 33.8174 41.6411 33.1665 41.8694 32.477L44.9253 23.4513C45.0899 22.8254 44.9503 22.3277 44.735 21.8297Z" fill="#2C2926"/>
<path d="M0.0745311 38.7197H8.88723L9.14086 41.2219C8.4815 41.0303 7.83632 40.9282 7.18654 40.9282L4.19404 40.9026L4.21939 44.8092C6.37491 44.924 7.02482 44.7198 8.43076 44.6817V47.2605C7.17364 46.9669 5.95636 46.9156 4.41101 47.0049L4.39832 50.5414C8.93633 51.5754 12.718 49.303 16.2654 49.3539L17.9674 51.282C12.4486 50.9883 9.71287 55.4947 0 53.3371C0.34069 52.75 0.440695 52.0733 0.405812 51.3584V40.0601C0.405894 39.6134 0.288674 39.1664 0.0745311 38.7197Z" fill="#2C2926"/>
<path d="M10.5846 38.7065H14.3411L19.857 45.4983L19.8695 40.4172C19.8918 39.8811 19.792 39.3194 19.3988 38.7065H23.404C23.2156 39.2683 23.076 39.8301 23.0633 40.4427L23.0759 50.273C23.0759 50.6655 23.1901 51.0263 23.3818 51.3582H20.2973C17.6883 48.8303 15.127 45.5494 14.211 44.8089L14.2014 48.4729C13.1601 48.5623 12.1202 48.7794 11.0821 49.1239L11.1041 40.2003C11.0824 39.6768 10.8779 39.1917 10.5846 38.7065Z" fill="#2C2926"/>
<path d="M24.7734 38.7579H33.3991L33.7 41.4009C32.41 41.0178 30.9644 40.9794 29.4681 41.0433L29.4807 44.1965C30.5191 44.2349 31.5319 44.222 32.4955 43.9412L32.4701 46.7882C31.6981 46.5456 30.7328 46.3667 29.503 46.4178C29.4904 48.0649 29.3144 49.8136 29.8613 51.3202H24.7732C25.1173 50.7585 25.271 50.1329 25.2313 49.4692L25.244 40.0219C25.1791 39.5624 25.0921 39.2176 24.7734 38.7579Z" fill="#2C2926"/>
<path d="M34.6162 38.7451H39.4599C39.2569 39.2684 39.1175 39.7534 39.0858 40.2005L39.0668 49.5326C39.0668 50.2218 39.2318 50.7838 39.4598 51.32H34.6162C34.8571 50.7455 34.9967 50.1454 34.9967 49.5326L35.0219 40.175C35.0219 39.6258 34.8444 39.1663 34.6162 38.7451Z" fill="#2C2926"/>
<path d="M40.9312 38.7579H49.3505L49.6358 41.4009C48.3869 41.0178 46.9669 40.9794 45.5086 41.0433L45.5213 43.7754C46.5357 43.8135 47.715 43.7879 48.6532 43.52L48.6281 46.3542C47.8671 46.1115 46.7514 45.9327 45.5466 45.9837C45.5342 46.7371 45.4959 47.5924 45.5085 48.4478V48.6521C45.5214 48.7796 45.5214 48.9074 45.5214 49.0316C46.9794 49.0987 48.7928 49.0605 50.0353 48.6776L49.7437 51.3202H40.9312C41.2736 50.7585 41.4131 50.1329 41.3749 49.4692L41.3877 40.0218C41.3243 39.5624 41.2354 39.2176 40.9312 38.7579Z" fill="#2C2926"/>
<path d="M51.0371 38.7578H56.0963C55.8303 39.2815 55.6907 39.6899 55.678 40.1751L55.5767 49.1241C58.0619 49.1117 60.1858 49.8902 62.4364 49.9541C65.1626 50.0308 67.1027 49.0986 67.7369 46.2519C68.3706 43.3665 66.6463 40.3664 63.0452 41.0177L63.0705 48.6646C61.8531 48.8817 60.3569 48.6519 58.8735 48.1668L58.9367 40.9921C58.9114 40.1494 58.7974 39.3581 58.4802 38.6813C61.9672 39.0642 65.2005 38.209 68.1551 39.5494C69.5627 40.1877 70.6152 41.1068 71.2492 42.3325C72.6185 44.9114 72.0225 48.2051 70.2093 50.4008C68.5483 52.4054 65.9236 53.35 62.4871 53.0563C60.04 52.8521 57.8844 51.818 55.5007 51.5115C54.2198 51.3454 52.7107 51.2818 51.0625 51.2818C51.2907 50.7073 51.4555 49.9923 51.4683 48.9964L51.5192 40.1877C51.4683 39.6516 51.2907 39.243 51.0371 38.7578Z" fill="#2C2926"/>
<path d="M54.5051 21.8682H59.4312C59.2411 22.4171 59.1143 22.9405 59.127 23.4256L59.0889 31.8641L62.6014 31.8514C63.0832 31.8641 63.4636 31.6853 63.8312 31.4811L63.4509 34.3791H54.5052C54.7395 33.6899 54.93 32.962 54.9045 31.9026L54.8666 23.8852C54.8664 23.1064 54.7523 22.4681 54.5051 21.8682Z" fill="#2C2926"/>
<path d="M46.5102 25.9532C46.8272 27.1278 47.2013 28.2767 47.6894 29.3874H45.3184C45.8126 28.2768 46.1806 27.1277 46.5102 25.9532Z" fill="white"/>
<path d="M30.7603 21.8682H34.9588L37.5964 27.0512L39.1943 23.5533C39.4477 22.9661 39.3715 22.4169 38.8517 21.8682H42.5162L38.877 29.2726L38.9151 33.1282C38.9025 33.6133 39.067 34.0216 39.3334 34.4174H34.4136C34.6387 34.0088 34.7655 33.5493 34.7559 33.0387L34.7655 29.0811L30.7603 21.8682Z" fill="#2C2926"/>
<path fill-rule="evenodd" clip-rule="evenodd" d="M5.89471 20.9871C5.90728 20.2211 5.71549 19.5701 5.36194 19.0085L10.4594 19.0082C10.7264 19.0102 10.9896 19.0073 11.2494 19.0044C12.6659 18.9886 13.983 18.9739 15.2888 19.7613C18.6395 21.7402 18.107 26.4765 14.517 27.6894C17.4571 33.5365 24.6989 35.5024 27.0463 31.5063C28.0972 29.7065 28.3508 25.4551 26.349 24.1785C26.0826 24.0126 25.8036 23.8977 25.5106 23.8211C22.8366 23.2213 21.8064 26.0043 22.1646 28.1873C22.4436 29.8725 23.5831 31.1235 25.2191 30.8045L25.612 31.5449C24.3552 32.1322 23.2899 32.3364 22.3786 32.2725C19.3988 32.0173 17.7631 28.6724 18.4858 25.9788C19.0707 23.8341 20.9695 22.1616 23.382 21.6893C26.8674 21.0254 30.4939 22.8638 31.4971 26.3618C32.0549 28.3022 31.6493 30.332 30.5937 32.0428C28.3778 35.6682 23.8495 36.8299 19.8426 36.0386C16.5839 35.4003 13.5914 33.2172 10.6243 29.1575H10.1535V32.5535C10.1661 33.358 10.3976 33.9451 10.6496 34.3918H5.38885C5.68069 33.958 5.8565 33.3193 5.89471 32.5024V20.9871ZM12.3994 21.6254C11.802 21.3831 10.9904 21.3319 9.97906 21.4085V27.0639C11.1044 27.1916 12.0555 27.0384 12.7275 26.4385C13.9845 25.3022 14.2015 22.3403 12.3994 21.6254Z" fill="#2C2926"/>
</g>
<defs>
<clipPath id="clip0_8208_52896">
<rect width="72" height="72" fill="white"/>
</clipPath>
</defs>
</svg>
