<svg width="72" height="72" viewBox="0 0 72 72" fill="none" xmlns="http://www.w3.org/2000/svg">
<g clip-path="url(#clip0_8208_52889)">
<path fill-rule="evenodd" clip-rule="evenodd" d="M70.0537 28.1119C69.191 26.4174 68.0528 24.7932 66.637 23.269C63.4571 19.8435 58.9706 16.995 53.6624 15.0278C48.3109 13.0471 42.2038 11.9999 36.001 11.9999C29.7982 11.9999 23.691 13.0471 18.3419 15.0278C13.0291 16.9927 8.54261 19.8435 5.36497 23.269C3.95142 24.7932 2.81102 26.4196 1.94604 28.1142C8.85673 26.4469 20.6796 24.2435 31.6579 24.0118C32.7164 23.9891 33.4448 24.3275 33.925 24.9341C34.51 25.6723 34.4668 28.3096 34.4509 29.4885L34.139 59.9658C34.7582 59.9862 35.3796 59.9999 36.001 59.9999C36.627 59.9999 37.2529 59.9908 37.8698 59.9703L37.5579 29.4885C37.542 28.3096 37.4965 25.6746 38.0838 24.9341C38.564 24.3275 39.2924 23.9891 40.3509 24.0118C51.3224 24.2412 63.143 26.4446 70.0537 28.1119Z" fill="#2C2926"/>
<path fill-rule="evenodd" clip-rule="evenodd" d="M71.5287 32.0759C61.413 29.793 54.6571 29.3727 47.9923 29.0025C42.181 28.6799 42.1059 30.7516 42.6864 34.7063C42.7251 34.9471 42.7706 35.2515 42.8275 35.599C44.7759 47.118 47.2024 57.0311 47.6213 58.7143C61.7864 55.4819 72.0022 46.5252 72.0022 36.0011C71.9999 34.6745 71.8383 33.3616 71.5287 32.0759Z" fill="#2C2926"/>
<path fill-rule="evenodd" clip-rule="evenodd" d="M29.3203 34.7064C29.9008 30.7493 29.8257 28.6799 24.0167 29.0025C17.3496 29.3705 10.5914 29.793 0.471183 32.0759C0.161614 33.3639 0 34.6746 0 36.0011C0 40.5488 1.85514 44.951 5.36284 48.7331C8.54276 52.1586 13.0292 55.0071 18.3397 56.9743C20.2632 57.6853 22.2913 58.2668 24.3809 58.7325C24.7724 57.156 27.2558 47.0363 29.227 35.3106C29.2634 35.0857 29.2976 34.879 29.3203 34.7064Z" fill="#2C2926"/>
</g>
<defs>
<clipPath id="clip0_8208_52889">
<rect width="72" height="72" fill="white"/>
</clipPath>
</defs>
</svg>
