<svg width="72" height="72" viewBox="0 0 72 72" fill="none" xmlns="http://www.w3.org/2000/svg">
<path d="M35.6403 60.6001L42.4508 21.5728C48.9467 21.5728 50.997 22.3066 51.2913 25.2626C51.2913 25.2626 55.6456 23.6089 57.8481 20.2499C52.4234 17.7685 46.5932 16.3351 40.6543 16.0226L35.5794 22.224L30.5045 16.0226C24.6007 16.3604 18.8091 17.8077 13.4224 20.2912C15.6147 23.6503 19.969 25.304 19.969 25.304C20.2735 22.3376 22.3136 21.6142 28.7689 21.6142L35.6403 60.6001Z" fill="#2C2926"/>
<path d="M35.6406 14.2139C43.5399 14.1179 51.3702 15.7203 58.6197 18.9166C59.1555 17.9985 59.6172 17.0376 60.0001 16.0433C52.2483 12.8967 43.9854 11.2594 35.6406 11.2166C27.2956 11.2592 19.0327 12.8964 11.281 16.0433C11.6718 17.0305 12.1262 17.9903 12.6411 18.9166C19.8969 15.7175 27.7344 14.115 35.6406 14.2139V14.2139Z" fill="#2C2926"/>
</svg>
