<svg width="72" height="72" viewBox="0 0 72 72" fill="none" xmlns="http://www.w3.org/2000/svg">
<path fill-rule="evenodd" clip-rule="evenodd" d="M33.8691 55.7612C30.3036 53.543 27.677 45.8879 27.677 36.7926C27.677 36.4589 27.6791 36.1299 27.6867 35.801L27.691 35.8058C17.7741 34.2578 10.6089 30.0167 10.4254 25.0017L10.3963 25.0595C7.96985 28.0547 6.58484 31.5177 6.58484 35.2076C6.58484 46.0656 18.5846 54.9623 33.805 55.7491L33.8691 55.7612ZM2 35.9999C2 23.8505 17.2217 14 36 14C54.7778 14 70 23.8505 70 35.9999C70 48.1492 54.7775 58 36 58C17.2217 58 2 48.1489 2 35.9999ZM36 17.175C39.625 17.175 42.7084 22.6368 43.8507 30.2576L43.855 30.2461C50.9073 29.1557 55.8451 26.6404 55.8451 23.7135C55.8451 19.7851 46.9591 16.6042 36 16.6042C25.04 16.6042 16.1549 19.7853 16.1549 23.7135C16.1549 26.6404 21.0919 29.1557 28.145 30.2461L28.1493 30.2576C29.2916 22.6371 32.3758 17.175 36 17.175ZM38.1945 55.7489C53.4148 54.9623 65.4162 46.0653 65.4162 35.2074C65.4162 31.5177 64.0296 28.0547 61.6034 25.0592L61.5738 25.0014C61.3903 30.0165 54.227 34.2575 44.309 35.8056L44.3133 35.8007C44.3201 36.1297 44.3236 36.4586 44.3236 36.7924C44.3236 45.8876 41.695 53.5427 38.1317 55.7609L38.1945 55.7489ZM36 30.8239C37.624 30.8239 39.2028 30.7552 40.7134 30.6229L40.7112 30.6254C39.9594 25.7401 38.1336 22.2923 36 22.2923C33.8664 22.2923 32.0408 25.7401 31.288 30.6254L31.2861 30.6229C32.7967 30.7552 34.376 30.8239 36 30.8239ZM36 48.9149C38.7291 48.9149 40.9553 43.2738 41.0742 36.1985L41.0887 36.2035C39.4437 36.3548 37.742 36.4337 36.0003 36.4337C34.2569 36.4337 32.5569 36.3548 30.9118 36.2035L30.9272 36.1985C31.0441 43.2736 33.2698 48.9149 36 48.9149Z" fill="#2C2926"/>
</svg>
