<svg width="72" height="72" viewBox="0 0 72 72" fill="none" xmlns="http://www.w3.org/2000/svg">
<path d="M2.13152 49.3969H3.51247L6.28345 38.8399H4.50113L3.77551 40.8928H0L1.78458 34.6873H19.2721L17.4875 40.8928H13.5034L14.0023 38.8354H12.3016L9.7415 49.5957H11.356L10.1293 53H0.752834L2.13152 49.3969Z" fill="#2C2926"/>
<path d="M20.8185 34.8749L19.696 38.8354H21.0067L22.7187 52.9866H28.6824L37.17 38.8354H38.145L39.8298 34.9732L30.4013 34.924L29.2335 38.8354H30.3877L27.4942 45.338L27.018 38.8309H27.9954L29.1972 34.8749H20.8185Z" fill="#2C2926"/>
<path d="M57.0884 35.3687L55.5329 41.496H51.3742C51.3742 41.496 51.2993 38.3978 47.093 39.0612C45.8957 39.3873 45.3492 40.7164 48.2585 41.2995C49.6123 41.5519 53.8254 42.3382 53.8254 46.5869C53.8753 47.2302 53.5465 52.9175 45.966 52.9175C45.0975 52.9733 41.8367 52.808 40.5828 51.5437C40.3311 52.2697 40.059 52.9175 40.059 52.9175H35.6689L37.2744 46.5377H41.5669C41.5669 46.5377 43.1021 49.9175 46.0544 48.5683C46.8844 48.0925 47.1746 47.1811 45.9705 46.8348C45.1021 46.5869 38.7801 45.8497 38.7801 41.773C38.7823 40.8951 38.4785 35.0739 47.0068 35.0739C48.161 35.0739 50.9184 35.4581 52.3742 36.3091C52.5624 35.6502 52.6463 35.3799 52.6463 35.3799L57.0884 35.3687Z" fill="#2C2926"/>
<path d="M37.6507 26.9895C37.6507 26.9895 34.3491 32.1406 25.3196 31.2851C23.145 31.1198 22.8956 31.1198 22.8956 31.1198L21.9001 31.638C21.9001 31.638 24.8843 32.7259 27.9704 32.7259C31.0566 32.7259 34.6575 32.163 36.0498 31.7229C37.2766 32.1071 39.2834 32.822 42.2924 32.0535C43.3514 32.1094 48.7845 33.262 52.1995 32.3551C52.9931 32.822 55.8707 32.402 57.4534 31.6693C58.5124 31.1756 58.6235 31.2851 58.6235 31.2851C58.6235 31.2851 62.1201 30.4742 67.814 32.4176C68.2108 33.262 68.2108 33.262 68.2108 33.262L67.5623 33.5904H71.9999V32.7103C71.9999 32.7103 58.009 28.5241 57.7868 28.5241C57.4534 28.1533 56.6711 27.3849 57.619 26.5606C57.9682 26.23 59.2221 25.5733 60.6643 27.5479C61.297 27.9322 62.043 28.2762 62.043 28.2762C62.043 28.2762 63.3605 28.0572 63.5487 27.5479C63.3038 27.0409 60.8525 24.0878 60.8525 24.0878L60.4761 21.9456L59.5147 23.1473C59.5147 23.1473 58.2743 21.7981 55.8911 22.9619C54.9568 23.373 50.5509 27.2307 47.2516 27.5457C42.6099 27.7624 40.0702 24.2531 37.6507 26.9895Z" fill="#2C2926"/>
<path d="M26.5125 24.6955C26.5125 24.6955 27.492 24.2019 28.7007 24.7782C30.6462 25.5198 31.17 27.4141 33.0113 27.3314C35.1247 27.0611 36.1882 26.7127 38.8208 25.2272C37.7347 25.2294 32.3016 25.2339 32.3016 25.2339C32.3016 25.2339 30.78 23.8422 29.1655 23.6233C28.1587 23.525 27.0317 24.3359 26.5125 24.6955Z" fill="#2C2926"/>
<path d="M59.4807 21.6195C59.4807 21.6195 59.4195 20 56.3741 20C55.7641 20 54.0816 20.1452 50.712 22.2941C50.068 22.761 48.7846 23.487 48.7846 23.487L50.2471 23.2837C50.2471 23.2837 50.1768 24.7625 45.678 26.3194C45.678 26.5316 45.7007 26.5897 45.7007 26.5897C45.7007 26.5897 47.873 27.5994 54.2063 22.7766C54.8004 22.3433 56.78 21.1057 59.4807 21.6195Z" fill="#2C2926"/>
</svg>
