<svg width="72" height="72" viewBox="0 0 72 72" fill="none" xmlns="http://www.w3.org/2000/svg">
<path d="M36 9C21.0879 9 9 21.0879 9 36C9 50.9121 21.0879 63 36 63C50.9121 63 63 50.9121 63 36C63 21.0879 50.9121 9 36 9ZM36 11.3724C38.8243 11.3724 41.5356 11.8243 44.0209 12.728L36.3389 30.0126C36.2259 30.3515 36.113 30.4644 36 30.4644C35.887 30.4644 35.7741 30.3515 35.6611 30.1255L27.9791 12.841C30.4644 11.9372 33.1757 11.3724 36 11.3724ZM24.251 14.5356L33.1757 34.4184C33.2887 34.7573 33.5146 34.8703 33.8536 34.8703H38.1464C38.4854 34.8703 38.7113 34.8703 38.8243 34.4184L47.749 14.5356C51.364 16.569 54.3013 19.3933 56.5607 22.7824L44.0209 47.8619C44.0209 47.9749 43.908 48.2008 43.682 48.2008C43.569 48.2008 43.4561 48.0879 43.3431 47.8619L38.5983 37.1297C38.4854 36.7908 38.2594 36.6778 37.9205 36.6778H33.6276C33.2887 36.6778 33.0628 36.6778 32.9498 37.1297L28.431 47.8619C28.431 47.9749 28.318 48.2008 28.092 48.2008C27.9791 48.2008 27.8661 48.0879 27.7531 47.8619L15.3264 22.7824C17.5858 19.3933 20.636 16.569 24.251 14.5356ZM36 60.5146C22.5565 60.5146 11.4854 49.4435 11.4854 36C11.4854 32.9498 12.0502 30.1255 13.0669 27.4142L27.4142 56.2218C27.5272 56.5607 27.8661 56.8996 28.318 56.8996C28.7699 56.8996 28.9958 56.5607 29.2218 56.2218L35.7741 41.5356C35.7741 41.4226 35.887 41.1967 36.113 41.1967C36.2259 41.1967 36.3389 41.3096 36.4519 41.5356L43.0042 56.2218C43.1172 56.5607 43.4561 56.8996 43.9079 56.8996C44.3598 56.8996 44.5858 56.5607 44.8117 56.2218L59.159 27.4142C60.1757 30.1255 60.7406 32.9498 60.7406 36C60.4017 49.4435 49.4435 60.5146 36 60.5146Z" fill="#2C2926"/>
</svg>
